<?xml version="1.0" encoding="utf-8"?>
<svg version="1.1" id="Layer_1" xmlns="http://www.w3.org/2000/svg" xmlns:xlink="http://www.w3.org/1999/xlink" x="0px" y="0px"
	 viewBox="0 0 2282.7227 1670.5385" enable-background="new 0 0 2282.7227 1670.5385" xml:space="preserve">
<path fill="#6b8e7a" d="M48.7777,1619.5278c36.9323-116.7853,106.5666-207.9227,188.6599-262.0828c22.8877-15.0999,44.8608-31.538,65.5628-49.5179
	c113.453-98.5356,229.2097-212.9569,190.2296-228.7148c-9.275-11.13-141.2997,41.9807-238.2793,85.0057
	c-5.0419,2.2369-9.6099-3.9452-5.9939-8.1104c376.6041-433.8048,769.5682-658.9226,1195.9097-458.3453
	c84.7875,39.8892,160.1608,97.5305,219.2926,170.2181c41.7574,51.3301,67.5095,99.6887,68.9543,143.585
	c-0.9268,142.707,56.5267,196.4539,140.8536,97.3003c38.9202-59.3069,0.4435-146.4979-42.6267-213.1339
	c-154.7538-270.5874-235.374-530.0548-126.0271-709.8286C1830.4137,9.836,2025.0143-8.6973,2135.2878,113.623
	c35.2136,32.4334,98.2271,195.5272,20.3867,276.1474c56.23,60.2959,84.7324,119.0146,77.8403,168.6538
	c-111.7378-103.206-152.5259-144.5848-174.2139-157.5338c-82.0313-27.8741-158.9375-88.9215-234.4757-158.8203
	c-2.4385-2.2564-6.3126-1.6709-8.0154,1.1818c-37.5519,62.9117-34.3809,157.4778-1.7648,274.9302
	c3.3187,11.9509,8.4366,23.3747,14.8745,33.9762c48.0239,107.1841,106.9778,206.2581,179.3412,295.3867
	c203.9681,229.6099,239.1671,584.0103,72.9259,672.7098c-16.501,8.8042-32.1719,19.0154-47.1719,30.1866
	c-81.8013,60.9211-404.1825,7.9053-717.0492,19.9056L60.9891,1635.2527C52.5566,1635.6881,46.2317,1627.5786,48.7777,1619.5278z"/>
</svg>
